<svg width="24" height="24" viewBox="0 0 24 24" fill="none" xmlns="http://www.w3.org/2000/svg">
<path d="M22.56 12.25C22.56 11.45 22.49 10.68 22.36 9.92H12V14.45H18.04C17.72 16.21 16.76 17.69 15.09 18.82V21.5H19.2C21.36 19.56 22.56 16.25 22.56 12.25Z" fill="#4285F4"/>
<path d="M12 23C14.97 23 17.47 22.02 19.2 20.5L15.09 17.82C14.09 18.52 12.87 18.94 12 18.94C9.38 18.94 7.15 17.22 6.33 14.9H2.08V17.68C3.87 20.94 7.64 23 12 23Z" fill="#34A853"/>
<path d="M6.33 14.9C6.12 14.3 6 13.65 6 13C6 12.35 6.12 11.7 6.33 11.1L2.08 8.32C1.29 9.92 0.75 11.4 0.75 13C0.75 14.6 1.29 16.08 2.08 17.68L6.33 14.9Z" fill="#FBBC05"/>
<path d="M12 7.06C13.44 7.06 14.73 7.58 15.7 8.49L19.28 4.91C17.47 3.2 14.97 2 12 2C7.64 2 3.87 4.06 2.08 7.32L6.33 10.1C7.15 7.78 9.38 6.06 12 6.06V7.06Z" fill="#EA4335"/>
</svg>