<svg width="200" height="30" viewBox="0 0 200 30" fill="none" xmlns="http://www.w3.org/2000/svg">
<rect x="0" y="8" width="4" height="14" rx="2" fill="#2C3E50"/>
<rect x="6" y="4" width="4" height="22" rx="2" fill="#2C3E50"/>
<rect x="12" y="10" width="4" height="10" rx="2" fill="#2C3E50"/>
<rect x="18" y="0" width="4" height="30" rx="2" fill="#2C3E50"/>
<rect x="24" y="5" width="4" height="20" rx="2" fill="#2C3E50"/>
<rect x="30" y="10" width="4" height="10" rx="2" fill="#2C3E50"/>
<rect x="36" y="2" width="4" height="26" rx="2" fill="#2C3E50"/>
<rect x="42" y="8" width="4" height="14" rx="2" fill="#2C3E50"/>
<rect x="48" y="12" width="4" height="6" rx="2" fill="#2C3E50"/>
<rect x="54" y="10" width="4" height="10" rx="2" fill="#2C3E50"/>
<rect x="60" y="12.5" width="2" height="5" rx="1" fill="#2C3E50"/>
<rect x="65" y="12.5" width="2" height="5" rx="1" fill="#2C3E50"/>
<rect x="70" y="12.5" width="2" height="5" rx="1" fill="#2C3E50"/>
<rect x="75" y="8" width="4" height="14" rx="2" fill="#2C3E50"/>
<rect x="81" y="2" width="4" height="26" rx="2" fill="#2C3E50"/>
<rect x="87" y="10" width="4" height="10" rx="2" fill="#2C3E50"/>
<rect x="93" y="5" width="4" height="20" rx="2" fill="#2C3E50"/>
<rect x="99" y="0" width="4" height="30" rx="2" fill="#2C3E50"/>
<rect x="105" y="10" width="4" height="10" rx="2" fill="#2C3E50"/>
<rect x="111" y="4" width="4" height="22" rx="2" fill="#2C3E50"/>
<rect x="117" y="8" width="4" height="14" rx="2" fill="#2C3E50"/>
<rect x="123" y="2" width="4" height="26" rx="2" fill="#2C3E50"/>
</svg>